<svg xmlns="http://www.w3.org/2000/svg" width="900" height="520" viewBox="0 0 900 520" role="img" aria-labelledby="title desc">
<title id="title">Encapsulated pneumococcus in blood</title><desc id="desc">Original schematic of a capsulated pneumococcus decorated by antibody-like molecules and complement fragments approaching a splenic macrophage.</desc>
<defs><marker id="arrow" markerWidth="10" markerHeight="10" refX="8" refY="3" orient="auto"><path d="M0,0 L0,6 L9,3 z" fill="#334155"/></marker><filter id="shadow" x="-20%" y="-20%" width="140%" height="140%"><feDropShadow dx="0" dy="3" stdDeviation="4" flood-opacity=".14"/></filter></defs>
<rect width="900" height="520" rx="28" fill="#f8fafc"/><text x="450" y="42" text-anchor="middle" font-family="Arial, sans-serif" font-size="27" font-weight="700" fill="#0f172a">Encapsulated pneumococcus in blood</text>
<circle cx="270" cy="245" r="105" fill="#dbeafe" stroke="#2563eb" stroke-width="4"/><circle cx="270" cy="245" r="65" fill="#fde68a" stroke="#b45309" stroke-width="3"/><text x="270" y="250" text-anchor="middle" font-family="Arial" font-size="18" font-weight="700">pneumococcus</text><path d="M378 227 q12 18 24 0 M390 245 v28" stroke="#7c3aed" stroke-width="4" fill="none"/><path d="M343 312 q12 18 24 0 M355 330 v28" stroke="#7c3aed" stroke-width="4" fill="none"/><path d="M258 347 q12 18 24 0 M270 365 v28" stroke="#7c3aed" stroke-width="4" fill="none"/><path d="M173 312 q12 18 24 0 M185 330 v28" stroke="#7c3aed" stroke-width="4" fill="none"/><path d="M138 227 q12 18 24 0 M150 245 v28" stroke="#7c3aed" stroke-width="4" fill="none"/><path d="M173 142 q12 18 24 0 M185 160 v28" stroke="#7c3aed" stroke-width="4" fill="none"/><path d="M258 107 q12 18 24 0 M270 125 v28" stroke="#7c3aed" stroke-width="4" fill="none"/><path d="M343 142 q12 18 24 0 M355 160 v28" stroke="#7c3aed" stroke-width="4" fill="none"/><circle cx="406" cy="295" r="10" fill="#22c55e"/><text x="421" y="300" font-family="Arial" font-size="13">C3b</text><circle cx="245" cy="388" r="10" fill="#22c55e"/><text x="260" y="393" font-family="Arial" font-size="13">C3b</text><circle cx="125" cy="245" r="10" fill="#22c55e"/><text x="140" y="250" font-family="Arial" font-size="13">C3b</text><circle cx="245" cy="102" r="10" fill="#22c55e"/><text x="260" y="107" font-family="Arial" font-size="13">C3b</text><circle cx="381" cy="152" r="10" fill="#22c55e"/><text x="396" y="157" font-family="Arial" font-size="13">C3b</text><rect x="585" y="135" width="235" height="215" rx="18" fill="#ecfdf5" stroke="#16a34a" stroke-width="2" filter="url(#shadow)"/><text x="702.5" y="170" text-anchor="middle" font-family="Arial, sans-serif" font-size="19" font-weight="700" fill="#0f172a">Splenic macrophage</text><text x="702.5" y="197" text-anchor="middle" font-family="Arial, sans-serif" font-size="15" fill="#475569">Fc and complement receptors</text><path d="M410 245 L585 245" stroke="#334155" stroke-width="4" fill="none" marker-end="url(#arrow)"/><text x="497.5" y="235" text-anchor="middle" font-family="Arial, sans-serif" font-size="15" fill="#334155">bloodstream clearance</text><text x="270" y="410" text-anchor="middle" font-family="Arial" font-size="16" fill="#475569">thick polysaccharide surface layer</text></svg>