<svg xmlns="http://www.w3.org/2000/svg" width="1200" height="720"><style>text{font-family:Arial;fill:#172536}.t{font-size:34px;font-weight:700}.h{font-size:22px;font-weight:700;fill:#315a8b}.b{font-size:19px}.p{fill:#fff;stroke:#26364a;stroke-width:2}.a{fill:#e9f1ff;stroke:#315a8b;stroke-width:2}.r{stroke:#b13b3b;stroke-width:8;fill:none}</style><rect width="1200" height="720" fill="#f7f9fc"/><text x="60" y="70" class="t">Scaphoid fracture: retrograde perfusion</text><rect x="60" y="120" width="330" height="480" rx="25" class="a"/><path d="M155 200 C105 250 130 345 190 375 C250 405 315 350 295 275 C280 220 215 165 155 200Z" class="p"/><path d="M290 335 C250 310 220 280 180 225" class="r"/><text x="100" y="545" class="h">Distal entry → proximal flow</text><rect x="435" y="120" width="315" height="480" rx="25" class="p"/><text x="470" y="190" class="h">Waist fracture</text><text x="470" y="245" class="b">May be occult initially</text><text x="470" y="290" class="b">Snuffbox tenderness</text><text x="470" y="335" class="b">Disrupts intraosseous flow</text><rect x="795" y="120" width="345" height="480" rx="25" class="p"/><text x="830" y="190" class="h">At-risk fragment</text><text x="830" y="245" class="b">Proximal pole</text><text x="830" y="290" class="b">Avascular necrosis</text><text x="830" y="335" class="b">Nonunion</text></svg>